%TF.GenerationSoftware,KiCad,Pcbnew,8.0.3-8.0.3-0~ubuntu22.04.1*%
%TF.CreationDate,2024-06-24T08:31:55-07:00*%
%TF.ProjectId,converter,636f6e76-6572-4746-9572-2e6b69636164,0.1*%
%TF.SameCoordinates,Original*%
%TF.FileFunction,Copper,L2,Bot*%
%TF.FilePolarity,Positive*%
%FSLAX46Y46*%
G04 Gerber Fmt 4.6, Leading zero omitted, Abs format (unit mm)*
G04 Created by KiCad (PCBNEW 8.0.3-8.0.3-0~ubuntu22.04.1) date 2024-06-24 08:31:55*
%MOMM*%
%LPD*%
G01*
G04 APERTURE LIST*
%TA.AperFunction,ComponentPad*%
%ADD10R,2.600000X2.600000*%
%TD*%
%TA.AperFunction,ComponentPad*%
%ADD11C,2.600000*%
%TD*%
%TA.AperFunction,ComponentPad*%
%ADD12C,3.600000*%
%TD*%
%TA.AperFunction,ConnectorPad*%
%ADD13C,5.700000*%
%TD*%
%TA.AperFunction,ViaPad*%
%ADD14C,0.600000*%
%TD*%
%TA.AperFunction,Conductor*%
%ADD15C,0.635000*%
%TD*%
%TA.AperFunction,Conductor*%
%ADD16C,0.254000*%
%TD*%
G04 APERTURE END LIST*
D10*
%TO.P,J2,1,Pin_1*%
%TO.N,HV*%
X115570000Y-64222000D03*
D11*
%TO.P,J2,2,Pin_2*%
%TO.N,GND*%
X115570000Y-59222000D03*
%TD*%
D12*
%TO.P,H3,1*%
%TO.N,N/C*%
X86360000Y-50546000D03*
D13*
X86360000Y-50546000D03*
%TD*%
D12*
%TO.P,H2,1*%
%TO.N,N/C*%
X118364000Y-87884000D03*
D13*
X118364000Y-87884000D03*
%TD*%
D10*
%TO.P,J1,1,Pin_1*%
%TO.N,+5V*%
X102790000Y-53289000D03*
D11*
%TO.P,J1,2,Pin_2*%
%TO.N,GND*%
X97790000Y-53289000D03*
%TO.P,J1,3,Pin_3*%
%TO.N,HVEN*%
X92790000Y-53289000D03*
%TD*%
D12*
%TO.P,H4,1*%
%TO.N,N/C*%
X118364000Y-50546000D03*
D13*
X118364000Y-50546000D03*
%TD*%
D12*
%TO.P,H1,1*%
%TO.N,N/C*%
X86360000Y-87884000D03*
D13*
X86360000Y-87884000D03*
%TD*%
D14*
%TO.N,GND*%
X88519000Y-71755000D03*
X88519000Y-76962000D03*
X95250000Y-73025000D03*
X88519000Y-73533000D03*
X108204000Y-56896000D03*
X93218000Y-75057000D03*
X87249000Y-54356000D03*
X103632000Y-64135000D03*
X90932000Y-76962000D03*
X95250000Y-71755000D03*
X114300000Y-54991000D03*
X93218000Y-71755000D03*
X103632000Y-66802000D03*
X93218000Y-76962000D03*
X93218000Y-73533000D03*
X90932000Y-73533000D03*
X90932000Y-71755000D03*
X90932000Y-75057000D03*
%TO.N,+5V*%
X84074000Y-59436000D03*
%TO.N,HV*%
X98298000Y-60198000D03*
%TO.N,Net-(U1-FBX)*%
X95758000Y-64008000D03*
X93218000Y-64008000D03*
%TO.N,UVLO*%
X95123000Y-67437000D03*
X109855000Y-52197000D03*
%TD*%
D15*
%TO.N,+5V*%
X96643000Y-59436000D02*
X102790000Y-53289000D01*
X84074000Y-59436000D02*
X96643000Y-59436000D01*
%TO.N,HV*%
X103886000Y-60198000D02*
X107910000Y-64222000D01*
X107910000Y-64222000D02*
X115570000Y-64222000D01*
X98298000Y-60198000D02*
X103886000Y-60198000D01*
D16*
%TO.N,Net-(U1-FBX)*%
X93218000Y-64008000D02*
X95758000Y-64008000D01*
%TO.N,UVLO*%
X103378000Y-58674000D02*
X109855000Y-52197000D01*
X98806000Y-58674000D02*
X103378000Y-58674000D01*
X96385000Y-66175000D02*
X96385000Y-61095000D01*
X96385000Y-61095000D02*
X98806000Y-58674000D01*
X95123000Y-67437000D02*
X96385000Y-66175000D01*
%TD*%
%TA.AperFunction,Conductor*%
%TO.N,Net-(U1-FBX)*%
G36*
X93343455Y-63735694D02*
G01*
X93343764Y-63735829D01*
X93448789Y-63783683D01*
X93449160Y-63783861D01*
X93531811Y-63825676D01*
X93605075Y-63856130D01*
X93692546Y-63874712D01*
X93806888Y-63880443D01*
X93814977Y-63884278D01*
X93818000Y-63892127D01*
X93818000Y-64123871D01*
X93814573Y-64132144D01*
X93806886Y-64135556D01*
X93692553Y-64141286D01*
X93692549Y-64141286D01*
X93692546Y-64141287D01*
X93631641Y-64154225D01*
X93605074Y-64159869D01*
X93531813Y-64190322D01*
X93449190Y-64232121D01*
X93448759Y-64232328D01*
X93343795Y-64280155D01*
X93334846Y-64280467D01*
X93328297Y-64274359D01*
X93328148Y-64274019D01*
X93310687Y-64232228D01*
X93218883Y-64012509D01*
X93218857Y-64003556D01*
X93218862Y-64003542D01*
X93328150Y-63741976D01*
X93334500Y-63735667D01*
X93343455Y-63735694D01*
G37*
%TD.AperFunction*%
%TD*%
%TA.AperFunction,Conductor*%
%TO.N,+5V*%
G36*
X102780921Y-53287439D02*
G01*
X102788865Y-53291572D01*
X102791560Y-53298078D01*
X102903517Y-54581014D01*
X102900822Y-54589554D01*
X102897019Y-54592533D01*
X101014912Y-55516923D01*
X101005975Y-55517494D01*
X101001481Y-55514694D01*
X100564305Y-55077518D01*
X100560878Y-55069245D01*
X100562075Y-55064090D01*
X101486467Y-53181978D01*
X101493189Y-53176065D01*
X101497981Y-53175482D01*
X102780921Y-53287439D01*
G37*
%TD.AperFunction*%
%TD*%
%TA.AperFunction,Conductor*%
%TO.N,UVLO*%
G36*
X109588985Y-52086773D02*
G01*
X109759074Y-52156614D01*
X109851184Y-52194436D01*
X109857536Y-52200748D01*
X109857563Y-52200815D01*
X109965217Y-52462991D01*
X109965190Y-52471946D01*
X109958838Y-52478258D01*
X109958492Y-52478394D01*
X109850443Y-52518798D01*
X109849993Y-52518956D01*
X109762017Y-52547821D01*
X109688685Y-52578089D01*
X109688682Y-52578090D01*
X109613696Y-52626799D01*
X109528791Y-52703600D01*
X109520356Y-52706608D01*
X109512669Y-52703196D01*
X109348803Y-52539330D01*
X109345376Y-52531057D01*
X109348399Y-52523208D01*
X109389057Y-52478258D01*
X109425196Y-52438305D01*
X109473908Y-52363315D01*
X109504179Y-52289975D01*
X109533054Y-52201965D01*
X109533185Y-52201592D01*
X109573606Y-52093505D01*
X109579713Y-52086958D01*
X109588662Y-52086646D01*
X109588985Y-52086773D01*
G37*
%TD.AperFunction*%
%TD*%
%TA.AperFunction,Conductor*%
%TO.N,Net-(U1-FBX)*%
G36*
X95647702Y-63741639D02*
G01*
X95647846Y-63741968D01*
X95703309Y-63874712D01*
X95757115Y-64003489D01*
X95757142Y-64012444D01*
X95757115Y-64012511D01*
X95647851Y-64274020D01*
X95641499Y-64280332D01*
X95632544Y-64280305D01*
X95632204Y-64280156D01*
X95527238Y-64232328D01*
X95526807Y-64232121D01*
X95444188Y-64190323D01*
X95370924Y-64159869D01*
X95283453Y-64141287D01*
X95283448Y-64141286D01*
X95283445Y-64141286D01*
X95169114Y-64135556D01*
X95161023Y-64131720D01*
X95158000Y-64123871D01*
X95158000Y-63892127D01*
X95161427Y-63883854D01*
X95169111Y-63880443D01*
X95283453Y-63874712D01*
X95370924Y-63856130D01*
X95444188Y-63825676D01*
X95526855Y-63783852D01*
X95527188Y-63783692D01*
X95632206Y-63735842D01*
X95641153Y-63735531D01*
X95647702Y-63741639D01*
G37*
%TD.AperFunction*%
%TD*%
%TA.AperFunction,Conductor*%
%TO.N,GND*%
G36*
X116761655Y-47391185D02*
G01*
X116807410Y-47443989D01*
X116817354Y-47513147D01*
X116788329Y-47576703D01*
X116758545Y-47601749D01*
X116480981Y-47768755D01*
X116391332Y-47836903D01*
X116191755Y-47988617D01*
X116191745Y-47988625D01*
X115927978Y-48238479D01*
X115692772Y-48515386D01*
X115488884Y-48816098D01*
X115488878Y-48816107D01*
X115318706Y-49137086D01*
X115318700Y-49137098D01*
X115184226Y-49474603D01*
X115184221Y-49474618D01*
X115087030Y-49824670D01*
X115087024Y-49824696D01*
X115028250Y-50183200D01*
X115028248Y-50183217D01*
X115008579Y-50545997D01*
X115008579Y-50546002D01*
X115028248Y-50908782D01*
X115028250Y-50908799D01*
X115087024Y-51267303D01*
X115087030Y-51267329D01*
X115184221Y-51617381D01*
X115184226Y-51617396D01*
X115318700Y-51954901D01*
X115318706Y-51954913D01*
X115488878Y-52275892D01*
X115488884Y-52275901D01*
X115692772Y-52576613D01*
X115845949Y-52756947D01*
X115927979Y-52853521D01*
X116191746Y-53103375D01*
X116480981Y-53323245D01*
X116792292Y-53510555D01*
X116792294Y-53510556D01*
X116792296Y-53510557D01*
X116792300Y-53510559D01*
X117077602Y-53642553D01*
X117122031Y-53663108D01*
X117466330Y-53779116D01*
X117821153Y-53857218D01*
X118182341Y-53896500D01*
X118182347Y-53896500D01*
X118545653Y-53896500D01*
X118545659Y-53896500D01*
X118906847Y-53857218D01*
X119261670Y-53779116D01*
X119605969Y-53663108D01*
X119935708Y-53510555D01*
X120247019Y-53323245D01*
X120536254Y-53103375D01*
X120800021Y-52853521D01*
X121035227Y-52576614D01*
X121239117Y-52275900D01*
X121304945Y-52151734D01*
X121353738Y-52101727D01*
X121421823Y-52086035D01*
X121487583Y-52109645D01*
X121530139Y-52165058D01*
X121538500Y-52209819D01*
X121538500Y-86220180D01*
X121518815Y-86287219D01*
X121466011Y-86332974D01*
X121396853Y-86342918D01*
X121333297Y-86313893D01*
X121304945Y-86278263D01*
X121239121Y-86154107D01*
X121239119Y-86154104D01*
X121239117Y-86154100D01*
X121035227Y-85853386D01*
X120800021Y-85576479D01*
X120536254Y-85326625D01*
X120536244Y-85326617D01*
X120467635Y-85274462D01*
X120247019Y-85106755D01*
X119935708Y-84919445D01*
X119935707Y-84919444D01*
X119935703Y-84919442D01*
X119935699Y-84919440D01*
X119605979Y-84766896D01*
X119605974Y-84766894D01*
X119605969Y-84766892D01*
X119438143Y-84710344D01*
X119261669Y-84650883D01*
X118906845Y-84572781D01*
X118545660Y-84533500D01*
X118545659Y-84533500D01*
X118182341Y-84533500D01*
X118182339Y-84533500D01*
X117821154Y-84572781D01*
X117466330Y-84650883D01*
X117200178Y-84740560D01*
X117122031Y-84766892D01*
X117122028Y-84766893D01*
X117122020Y-84766896D01*
X116792300Y-84919440D01*
X116792296Y-84919442D01*
X116560453Y-85058937D01*
X116480981Y-85106755D01*
X116391332Y-85174903D01*
X116191755Y-85326617D01*
X116191745Y-85326625D01*
X115927978Y-85576479D01*
X115692772Y-85853386D01*
X115488884Y-86154098D01*
X115488878Y-86154107D01*
X115318706Y-86475086D01*
X115318700Y-86475098D01*
X115184226Y-86812603D01*
X115184221Y-86812618D01*
X115087030Y-87162670D01*
X115087024Y-87162696D01*
X115028250Y-87521200D01*
X115028248Y-87521217D01*
X115008579Y-87883997D01*
X115008579Y-87884002D01*
X115028248Y-88246782D01*
X115028250Y-88246799D01*
X115087024Y-88605303D01*
X115087030Y-88605329D01*
X115184221Y-88955381D01*
X115184226Y-88955396D01*
X115318700Y-89292901D01*
X115318706Y-89292913D01*
X115488878Y-89613892D01*
X115488881Y-89613897D01*
X115488883Y-89613900D01*
X115692773Y-89914614D01*
X115927979Y-90191521D01*
X116191746Y-90441375D01*
X116480981Y-90661245D01*
X116758545Y-90828250D01*
X116805840Y-90879679D01*
X116817822Y-90948514D01*
X116790687Y-91012899D01*
X116733050Y-91052393D01*
X116694616Y-91058500D01*
X88029384Y-91058500D01*
X87962345Y-91038815D01*
X87916590Y-90986011D01*
X87906646Y-90916853D01*
X87935671Y-90853297D01*
X87965455Y-90828250D01*
X88243019Y-90661245D01*
X88532254Y-90441375D01*
X88796021Y-90191521D01*
X89031227Y-89914614D01*
X89235117Y-89613900D01*
X89405298Y-89292905D01*
X89539775Y-88955391D01*
X89636973Y-88605316D01*
X89695751Y-88246785D01*
X89715421Y-87884000D01*
X89695751Y-87521215D01*
X89636973Y-87162684D01*
X89619097Y-87098303D01*
X89539778Y-86812618D01*
X89539773Y-86812603D01*
X89405299Y-86475098D01*
X89405298Y-86475095D01*
X89293881Y-86264940D01*
X89235121Y-86154107D01*
X89235119Y-86154104D01*
X89235117Y-86154100D01*
X89031227Y-85853386D01*
X88796021Y-85576479D01*
X88532254Y-85326625D01*
X88532244Y-85326617D01*
X88463635Y-85274462D01*
X88243019Y-85106755D01*
X87931708Y-84919445D01*
X87931707Y-84919444D01*
X87931703Y-84919442D01*
X87931699Y-84919440D01*
X87601979Y-84766896D01*
X87601974Y-84766894D01*
X87601969Y-84766892D01*
X87434143Y-84710344D01*
X87257669Y-84650883D01*
X86902845Y-84572781D01*
X86541660Y-84533500D01*
X86541659Y-84533500D01*
X86178341Y-84533500D01*
X86178339Y-84533500D01*
X85817154Y-84572781D01*
X85462330Y-84650883D01*
X85196178Y-84740560D01*
X85118031Y-84766892D01*
X85118028Y-84766893D01*
X85118020Y-84766896D01*
X84788300Y-84919440D01*
X84788296Y-84919442D01*
X84556453Y-85058937D01*
X84476981Y-85106755D01*
X84387332Y-85174903D01*
X84187755Y-85326617D01*
X84187745Y-85326625D01*
X83923978Y-85576479D01*
X83688772Y-85853386D01*
X83484884Y-86154098D01*
X83484878Y-86154107D01*
X83419055Y-86278263D01*
X83370262Y-86328273D01*
X83302177Y-86343964D01*
X83236417Y-86320354D01*
X83193860Y-86264940D01*
X83185500Y-86220180D01*
X83185500Y-59987400D01*
X83205185Y-59920361D01*
X83257989Y-59874606D01*
X83327147Y-59864662D01*
X83390703Y-59893687D01*
X83412601Y-59918508D01*
X83426227Y-59938900D01*
X83438619Y-59957447D01*
X83552552Y-60071380D01*
X83686533Y-60160903D01*
X83760965Y-60191733D01*
X83835398Y-60222565D01*
X83993429Y-60253999D01*
X83993433Y-60254000D01*
X83993434Y-60254000D01*
X96039219Y-60254000D01*
X96106258Y-60273685D01*
X96152013Y-60326489D01*
X96161957Y-60395647D01*
X96132932Y-60459203D01*
X96126900Y-60465681D01*
X95984992Y-60607589D01*
X95941289Y-60651292D01*
X95897586Y-60694994D01*
X95897585Y-60694996D01*
X95828233Y-60798789D01*
X95826586Y-60803393D01*
X95781614Y-60911964D01*
X95779438Y-60922903D01*
X95763394Y-61003565D01*
X95763394Y-61003566D01*
X95757500Y-61033195D01*
X95757500Y-63091677D01*
X95737815Y-63158716D01*
X95685011Y-63204471D01*
X95647385Y-63214897D01*
X95578747Y-63222631D01*
X95450517Y-63267500D01*
X95444413Y-63269459D01*
X95435735Y-63271999D01*
X95422614Y-63275840D01*
X95417880Y-63277996D01*
X95414190Y-63279678D01*
X95411416Y-63280794D01*
X95407028Y-63282909D01*
X95404617Y-63284039D01*
X95317599Y-63323688D01*
X95308268Y-63328056D01*
X95307967Y-63328200D01*
X95298564Y-63332836D01*
X95245302Y-63359784D01*
X95195534Y-63372983D01*
X95143821Y-63375575D01*
X95096807Y-63379871D01*
X95096764Y-63379411D01*
X95084905Y-63380500D01*
X93869395Y-63380500D01*
X93845628Y-63378201D01*
X93832189Y-63375576D01*
X93832182Y-63375575D01*
X93780464Y-63372983D01*
X93730695Y-63359785D01*
X93677339Y-63332791D01*
X93667850Y-63328114D01*
X93667629Y-63328008D01*
X93667455Y-63327925D01*
X93658385Y-63323683D01*
X93658369Y-63323675D01*
X93658329Y-63323657D01*
X93571464Y-63284077D01*
X93569104Y-63282972D01*
X93564529Y-63280770D01*
X93561766Y-63279659D01*
X93553360Y-63275829D01*
X93553302Y-63275803D01*
X93546216Y-63272640D01*
X93545834Y-63272473D01*
X93545806Y-63272462D01*
X93487341Y-63251104D01*
X93487328Y-63251100D01*
X93484048Y-63250619D01*
X93461117Y-63244978D01*
X93397252Y-63222631D01*
X93218004Y-63202435D01*
X93217996Y-63202435D01*
X93038750Y-63222630D01*
X93038745Y-63222631D01*
X92868476Y-63282211D01*
X92715737Y-63378184D01*
X92588184Y-63505737D01*
X92492211Y-63658476D01*
X92432631Y-63828745D01*
X92432630Y-63828750D01*
X92412435Y-64007996D01*
X92412435Y-64008003D01*
X92432630Y-64187249D01*
X92432631Y-64187254D01*
X92492211Y-64357523D01*
X92588184Y-64510262D01*
X92715738Y-64637816D01*
X92734941Y-64649882D01*
X92867252Y-64733019D01*
X92868478Y-64733789D01*
X92910480Y-64748486D01*
X93038745Y-64793368D01*
X93038750Y-64793369D01*
X93217996Y-64813565D01*
X93218000Y-64813565D01*
X93218004Y-64813565D01*
X93397251Y-64793369D01*
X93397253Y-64793368D01*
X93397255Y-64793368D01*
X93525526Y-64748483D01*
X93531640Y-64746520D01*
X93533257Y-64746046D01*
X93553394Y-64740153D01*
X93561686Y-64736374D01*
X93564532Y-64735231D01*
X93569077Y-64733039D01*
X93571509Y-64731897D01*
X93658358Y-64692326D01*
X93667608Y-64687998D01*
X93668039Y-64687791D01*
X93677383Y-64683184D01*
X93730699Y-64656211D01*
X93780464Y-64643014D01*
X93832188Y-64640422D01*
X93873490Y-64636649D01*
X93873491Y-64636648D01*
X93879171Y-64636130D01*
X93879212Y-64636588D01*
X93891078Y-64635500D01*
X95106612Y-64635500D01*
X95130380Y-64637798D01*
X95143811Y-64640422D01*
X95195532Y-64643014D01*
X95245300Y-64656212D01*
X95298609Y-64683182D01*
X95307958Y-64687791D01*
X95308389Y-64687998D01*
X95317639Y-64692326D01*
X95404566Y-64731934D01*
X95406880Y-64733019D01*
X95408473Y-64733786D01*
X95408478Y-64733789D01*
X95408482Y-64733790D01*
X95411495Y-64735241D01*
X95414276Y-64736359D01*
X95422601Y-64740152D01*
X95422728Y-64740210D01*
X95429214Y-64743108D01*
X95429243Y-64743121D01*
X95429304Y-64743148D01*
X95429644Y-64743297D01*
X95488666Y-64764897D01*
X95491940Y-64765377D01*
X95514878Y-64771020D01*
X95578741Y-64793367D01*
X95578742Y-64793367D01*
X95578745Y-64793368D01*
X95647384Y-64801101D01*
X95711796Y-64828166D01*
X95751352Y-64885760D01*
X95757500Y-64924321D01*
X95757500Y-65863718D01*
X95737815Y-65930757D01*
X95721181Y-65951399D01*
X95139898Y-66532681D01*
X95121468Y-66547861D01*
X95110109Y-66555507D01*
X95071696Y-66590253D01*
X95027173Y-66616110D01*
X94970431Y-66634726D01*
X94960477Y-66638106D01*
X94960160Y-66638218D01*
X94960127Y-66638229D01*
X94960087Y-66638244D01*
X94953015Y-66640807D01*
X94950513Y-66641715D01*
X94842333Y-66682170D01*
X94833342Y-66685632D01*
X94833015Y-66685762D01*
X94833008Y-66685764D01*
X94833003Y-66685767D01*
X94832996Y-66685770D01*
X94832992Y-66685772D01*
X94799219Y-66701543D01*
X94787714Y-66706229D01*
X94773482Y-66711209D01*
X94773478Y-66711211D01*
X94620737Y-66807184D01*
X94493184Y-66934737D01*
X94397211Y-67087476D01*
X94337631Y-67257745D01*
X94337630Y-67257750D01*
X94317435Y-67436996D01*
X94317435Y-67437003D01*
X94337630Y-67616249D01*
X94337631Y-67616254D01*
X94397211Y-67786523D01*
X94493184Y-67939262D01*
X94620738Y-68066816D01*
X94773478Y-68162789D01*
X94943745Y-68222368D01*
X94943750Y-68222369D01*
X95122996Y-68242565D01*
X95123000Y-68242565D01*
X95123004Y-68242565D01*
X95302249Y-68222369D01*
X95302252Y-68222368D01*
X95302255Y-68222368D01*
X95472522Y-68162789D01*
X95625262Y-68066816D01*
X95752816Y-67939262D01*
X95848789Y-67786522D01*
X95860782Y-67752246D01*
X95869035Y-67733697D01*
X95877873Y-67717545D01*
X95918277Y-67609496D01*
X95921753Y-67599907D01*
X95921911Y-67599457D01*
X95925264Y-67589582D01*
X95925264Y-67589581D01*
X95925282Y-67589529D01*
X95943885Y-67532826D01*
X95969747Y-67488297D01*
X96004483Y-67449896D01*
X96034682Y-67413626D01*
X96035041Y-67413925D01*
X96042647Y-67404770D01*
X96872411Y-66575008D01*
X96885439Y-66555510D01*
X96941083Y-66472233D01*
X96961597Y-66422708D01*
X96988386Y-66358034D01*
X97012500Y-66236803D01*
X97012500Y-66113196D01*
X97012500Y-61406280D01*
X97032185Y-61339241D01*
X97048815Y-61318603D01*
X97567614Y-60799803D01*
X97628937Y-60766319D01*
X97698629Y-60771303D01*
X97742976Y-60799804D01*
X97776552Y-60833380D01*
X97910533Y-60922903D01*
X97984965Y-60953733D01*
X98059398Y-60984565D01*
X98217429Y-61015999D01*
X98217433Y-61016000D01*
X98217434Y-61016000D01*
X103495811Y-61016000D01*
X103562850Y-61035685D01*
X103583492Y-61052319D01*
X107388551Y-64857379D01*
X107388555Y-64857382D01*
X107522524Y-64946898D01*
X107522537Y-64946905D01*
X107542239Y-64955065D01*
X107555376Y-64960506D01*
X107555378Y-64960508D01*
X107555379Y-64960508D01*
X107671398Y-65008565D01*
X107829429Y-65039999D01*
X107829433Y-65040000D01*
X107829434Y-65040000D01*
X113068332Y-65040000D01*
X113135371Y-65059685D01*
X113138234Y-65061580D01*
X113715402Y-65455498D01*
X113759677Y-65509549D01*
X113769500Y-65557910D01*
X113769500Y-65569865D01*
X113769501Y-65569877D01*
X113775908Y-65629483D01*
X113826202Y-65764328D01*
X113826206Y-65764335D01*
X113912452Y-65879544D01*
X113912455Y-65879547D01*
X114027664Y-65965793D01*
X114027671Y-65965797D01*
X114162517Y-66016091D01*
X114162516Y-66016091D01*
X114169444Y-66016835D01*
X114222127Y-66022500D01*
X116917872Y-66022499D01*
X116977483Y-66016091D01*
X117112331Y-65965796D01*
X117227546Y-65879546D01*
X117313796Y-65764331D01*
X117364091Y-65629483D01*
X117370500Y-65569873D01*
X117370499Y-62874128D01*
X117364091Y-62814517D01*
X117313796Y-62679669D01*
X117313795Y-62679668D01*
X117313793Y-62679664D01*
X117227547Y-62564455D01*
X117227544Y-62564452D01*
X117112335Y-62478206D01*
X117112328Y-62478202D01*
X116977482Y-62427908D01*
X116977483Y-62427908D01*
X116917883Y-62421501D01*
X116917881Y-62421500D01*
X116917873Y-62421500D01*
X116917864Y-62421500D01*
X114222129Y-62421500D01*
X114222123Y-62421501D01*
X114162516Y-62427908D01*
X114027671Y-62478202D01*
X114027664Y-62478206D01*
X113912455Y-62564452D01*
X113912452Y-62564455D01*
X113826206Y-62679664D01*
X113826202Y-62679671D01*
X113775908Y-62814517D01*
X113769501Y-62874116D01*
X113769501Y-62874123D01*
X113769500Y-62874135D01*
X113769500Y-62886081D01*
X113749815Y-62953120D01*
X113715401Y-62988501D01*
X113138231Y-63382420D01*
X113071763Y-63403952D01*
X113068330Y-63404000D01*
X108300189Y-63404000D01*
X108233150Y-63384315D01*
X108212508Y-63367681D01*
X104407448Y-59562620D01*
X104407444Y-59562617D01*
X104273471Y-59473098D01*
X104273468Y-59473097D01*
X104183907Y-59436000D01*
X104124602Y-59411435D01*
X104124594Y-59411433D01*
X103966570Y-59380000D01*
X103966566Y-59380000D01*
X103858214Y-59380000D01*
X103791175Y-59360315D01*
X103745420Y-59307511D01*
X103735476Y-59238353D01*
X103742946Y-59221995D01*
X113764953Y-59221995D01*
X113764953Y-59222004D01*
X113785113Y-59491026D01*
X113785113Y-59491028D01*
X113845142Y-59754033D01*
X113845148Y-59754052D01*
X113943709Y-60005181D01*
X113943708Y-60005181D01*
X114078602Y-60238822D01*
X114132294Y-60306151D01*
X114132295Y-60306151D01*
X114968958Y-59469488D01*
X114993978Y-59529890D01*
X115065112Y-59636351D01*
X115155649Y-59726888D01*
X115262110Y-59798022D01*
X115322510Y-59823041D01*
X114484848Y-60660702D01*
X114667483Y-60785220D01*
X114667485Y-60785221D01*
X114910539Y-60902269D01*
X114910537Y-60902269D01*
X115168337Y-60981790D01*
X115168343Y-60981792D01*
X115435101Y-61021999D01*
X115435110Y-61022000D01*
X115704890Y-61022000D01*
X115704898Y-61021999D01*
X115971656Y-60981792D01*
X115971662Y-60981790D01*
X116229461Y-60902269D01*
X116472521Y-60785218D01*
X116655150Y-60660702D01*
X115817488Y-59823041D01*
X115877890Y-59798022D01*
X115984351Y-59726888D01*
X116074888Y-59636351D01*
X116146022Y-59529890D01*
X116171041Y-59469488D01*
X117007703Y-60306151D01*
X117007704Y-60306150D01*
X117061393Y-60238828D01*
X117061400Y-60238817D01*
X117196290Y-60005181D01*
X117294851Y-59754052D01*
X117294857Y-59754033D01*
X117354886Y-59491028D01*
X117354886Y-59491026D01*
X117375047Y-59222004D01*
X117375047Y-59221995D01*
X117354886Y-58952973D01*
X117354886Y-58952971D01*
X117294857Y-58689966D01*
X117294851Y-58689947D01*
X117196290Y-58438818D01*
X117196291Y-58438818D01*
X117061397Y-58205177D01*
X117007704Y-58137847D01*
X116171041Y-58974510D01*
X116146022Y-58914110D01*
X116074888Y-58807649D01*
X115984351Y-58717112D01*
X115877890Y-58645978D01*
X115817488Y-58620958D01*
X116655150Y-57783296D01*
X116472517Y-57658779D01*
X116472516Y-57658778D01*
X116229460Y-57541730D01*
X116229462Y-57541730D01*
X115971662Y-57462209D01*
X115971656Y-57462207D01*
X115704898Y-57422000D01*
X115435101Y-57422000D01*
X115168343Y-57462207D01*
X115168337Y-57462209D01*
X114910538Y-57541730D01*
X114667485Y-57658778D01*
X114667476Y-57658783D01*
X114484848Y-57783296D01*
X115322511Y-58620958D01*
X115262110Y-58645978D01*
X115155649Y-58717112D01*
X115065112Y-58807649D01*
X114993978Y-58914110D01*
X114968958Y-58974511D01*
X114132295Y-58137848D01*
X114078600Y-58205180D01*
X113943709Y-58438818D01*
X113845148Y-58689947D01*
X113845142Y-58689966D01*
X113785113Y-58952971D01*
X113785113Y-58952973D01*
X113764953Y-59221995D01*
X103742946Y-59221995D01*
X103764501Y-59174797D01*
X103773761Y-59165780D01*
X103773700Y-59165719D01*
X103781438Y-59157981D01*
X103865411Y-59074008D01*
X109838116Y-53101301D01*
X109856535Y-53086131D01*
X109867894Y-53078485D01*
X109906299Y-53043744D01*
X109950825Y-53017885D01*
X109966231Y-53012830D01*
X110007529Y-52999282D01*
X110007582Y-52999264D01*
X110017457Y-52995911D01*
X110017907Y-52995753D01*
X110027496Y-52992277D01*
X110135545Y-52951873D01*
X110143413Y-52948856D01*
X110143759Y-52948720D01*
X110178631Y-52932491D01*
X110189998Y-52927871D01*
X110192917Y-52926849D01*
X110204522Y-52922789D01*
X110357262Y-52826816D01*
X110484816Y-52699262D01*
X110580789Y-52546522D01*
X110640368Y-52376255D01*
X110651675Y-52275901D01*
X110660565Y-52197003D01*
X110660565Y-52196996D01*
X110640369Y-52017750D01*
X110640368Y-52017745D01*
X110613559Y-51941129D01*
X110580789Y-51847478D01*
X110484816Y-51694738D01*
X110357262Y-51567184D01*
X110322278Y-51545202D01*
X110204523Y-51471211D01*
X110034254Y-51411631D01*
X110034249Y-51411630D01*
X109855004Y-51391435D01*
X109854996Y-51391435D01*
X109675750Y-51411630D01*
X109675745Y-51411631D01*
X109505476Y-51471211D01*
X109352737Y-51567184D01*
X109225184Y-51694737D01*
X109129211Y-51847478D01*
X109129209Y-51847482D01*
X109117222Y-51881736D01*
X109108966Y-51900292D01*
X109100133Y-51916436D01*
X109100132Y-51916437D01*
X109059696Y-52024564D01*
X109056235Y-52034109D01*
X109056130Y-52034409D01*
X109052736Y-52044403D01*
X109034109Y-52101176D01*
X109008253Y-52145696D01*
X108973508Y-52184110D01*
X108943323Y-52220366D01*
X108942974Y-52220075D01*
X108935347Y-52229232D01*
X103154400Y-58010181D01*
X103093077Y-58043666D01*
X103066719Y-58046500D01*
X99488689Y-58046500D01*
X99421650Y-58026815D01*
X99375895Y-57974011D01*
X99365951Y-57904853D01*
X99394976Y-57841297D01*
X99401008Y-57834819D01*
X99813826Y-57422000D01*
X101277091Y-55958733D01*
X101310099Y-55935120D01*
X103005972Y-55102198D01*
X103060637Y-55089499D01*
X104137871Y-55089499D01*
X104137872Y-55089499D01*
X104197483Y-55083091D01*
X104332331Y-55032796D01*
X104447546Y-54946546D01*
X104533796Y-54831331D01*
X104584091Y-54696483D01*
X104590500Y-54636873D01*
X104590499Y-51941128D01*
X104584091Y-51881517D01*
X104582542Y-51877365D01*
X104533797Y-51746671D01*
X104533793Y-51746664D01*
X104447547Y-51631455D01*
X104447544Y-51631452D01*
X104332335Y-51545206D01*
X104332328Y-51545202D01*
X104197482Y-51494908D01*
X104197483Y-51494908D01*
X104137883Y-51488501D01*
X104137881Y-51488500D01*
X104137873Y-51488500D01*
X104137864Y-51488500D01*
X101442129Y-51488500D01*
X101442123Y-51488501D01*
X101382516Y-51494908D01*
X101247671Y-51545202D01*
X101247664Y-51545206D01*
X101132455Y-51631452D01*
X101132452Y-51631455D01*
X101046206Y-51746664D01*
X101046202Y-51746671D01*
X100995908Y-51881517D01*
X100992154Y-51916441D01*
X100989501Y-51941123D01*
X100989500Y-51941135D01*
X100989500Y-53018359D01*
X100976800Y-53073024D01*
X100143878Y-54768897D01*
X100120259Y-54801913D01*
X96340492Y-58581681D01*
X96279169Y-58615166D01*
X96252811Y-58618000D01*
X83993429Y-58618000D01*
X83835405Y-58649433D01*
X83835397Y-58649435D01*
X83686533Y-58711096D01*
X83552552Y-58800619D01*
X83438620Y-58914551D01*
X83438617Y-58914555D01*
X83412602Y-58953490D01*
X83358990Y-58998295D01*
X83289665Y-59007002D01*
X83226637Y-58976847D01*
X83189918Y-58917404D01*
X83185500Y-58884599D01*
X83185500Y-52209819D01*
X83205185Y-52142780D01*
X83257989Y-52097025D01*
X83327147Y-52087081D01*
X83390703Y-52116106D01*
X83419053Y-52151733D01*
X83482911Y-52272180D01*
X83484885Y-52275903D01*
X83688772Y-52576613D01*
X83841949Y-52756947D01*
X83923979Y-52853521D01*
X84187746Y-53103375D01*
X84476981Y-53323245D01*
X84788292Y-53510555D01*
X84788294Y-53510556D01*
X84788296Y-53510557D01*
X84788300Y-53510559D01*
X85073602Y-53642553D01*
X85118031Y-53663108D01*
X85462330Y-53779116D01*
X85817153Y-53857218D01*
X86178341Y-53896500D01*
X86178347Y-53896500D01*
X86541653Y-53896500D01*
X86541659Y-53896500D01*
X86902847Y-53857218D01*
X87257670Y-53779116D01*
X87601969Y-53663108D01*
X87931708Y-53510555D01*
X88243019Y-53323245D01*
X88288074Y-53288995D01*
X90984451Y-53288995D01*
X90984451Y-53289004D01*
X91004616Y-53558101D01*
X91064664Y-53821188D01*
X91064666Y-53821195D01*
X91110901Y-53939000D01*
X91163257Y-54072398D01*
X91298185Y-54306102D01*
X91351655Y-54373151D01*
X91466442Y-54517089D01*
X91653183Y-54690358D01*
X91664259Y-54700635D01*
X91887226Y-54852651D01*
X92130359Y-54969738D01*
X92388228Y-55049280D01*
X92388229Y-55049280D01*
X92388232Y-55049281D01*
X92655063Y-55089499D01*
X92655068Y-55089499D01*
X92655071Y-55089500D01*
X92655072Y-55089500D01*
X92924928Y-55089500D01*
X92924929Y-55089500D01*
X92924936Y-55089499D01*
X93191767Y-55049281D01*
X93191768Y-55049280D01*
X93191772Y-55049280D01*
X93449641Y-54969738D01*
X93692775Y-54852651D01*
X93915741Y-54700635D01*
X94113561Y-54517085D01*
X94281815Y-54306102D01*
X94416743Y-54072398D01*
X94515334Y-53821195D01*
X94575383Y-53558103D01*
X94595549Y-53289000D01*
X94595549Y-53288995D01*
X95984953Y-53288995D01*
X95984953Y-53289004D01*
X96005113Y-53558026D01*
X96005113Y-53558028D01*
X96065142Y-53821033D01*
X96065148Y-53821052D01*
X96163709Y-54072181D01*
X96163708Y-54072181D01*
X96298602Y-54305822D01*
X96352294Y-54373151D01*
X96352295Y-54373151D01*
X97188958Y-53536488D01*
X97213978Y-53596890D01*
X97285112Y-53703351D01*
X97375649Y-53793888D01*
X97482110Y-53865022D01*
X97542510Y-53890041D01*
X96704848Y-54727702D01*
X96887483Y-54852220D01*
X96887485Y-54852221D01*
X97130539Y-54969269D01*
X97130537Y-54969269D01*
X97388337Y-55048790D01*
X97388343Y-55048792D01*
X97655101Y-55088999D01*
X97655110Y-55089000D01*
X97924890Y-55089000D01*
X97924898Y-55088999D01*
X98191656Y-55048792D01*
X98191662Y-55048790D01*
X98449461Y-54969269D01*
X98692521Y-54852218D01*
X98875150Y-54727702D01*
X98037488Y-53890041D01*
X98097890Y-53865022D01*
X98204351Y-53793888D01*
X98294888Y-53703351D01*
X98366022Y-53596890D01*
X98391041Y-53536488D01*
X99227703Y-54373151D01*
X99227704Y-54373150D01*
X99281393Y-54305828D01*
X99281400Y-54305817D01*
X99416290Y-54072181D01*
X99514851Y-53821052D01*
X99514857Y-53821033D01*
X99574886Y-53558028D01*
X99574886Y-53558026D01*
X99595047Y-53289004D01*
X99595047Y-53288995D01*
X99574886Y-53019973D01*
X99574886Y-53019971D01*
X99514857Y-52756966D01*
X99514851Y-52756947D01*
X99416290Y-52505818D01*
X99416291Y-52505818D01*
X99281397Y-52272177D01*
X99227704Y-52204847D01*
X98391041Y-53041510D01*
X98366022Y-52981110D01*
X98294888Y-52874649D01*
X98204351Y-52784112D01*
X98097890Y-52712978D01*
X98037488Y-52687958D01*
X98875150Y-51850296D01*
X98692517Y-51725779D01*
X98692516Y-51725778D01*
X98449460Y-51608730D01*
X98449462Y-51608730D01*
X98191662Y-51529209D01*
X98191656Y-51529207D01*
X97924898Y-51489000D01*
X97655101Y-51489000D01*
X97388343Y-51529207D01*
X97388337Y-51529209D01*
X97130538Y-51608730D01*
X96887485Y-51725778D01*
X96887476Y-51725783D01*
X96704848Y-51850296D01*
X97542511Y-52687958D01*
X97482110Y-52712978D01*
X97375649Y-52784112D01*
X97285112Y-52874649D01*
X97213978Y-52981110D01*
X97188958Y-53041511D01*
X96352295Y-52204848D01*
X96298600Y-52272180D01*
X96163709Y-52505818D01*
X96065148Y-52756947D01*
X96065142Y-52756966D01*
X96005113Y-53019971D01*
X96005113Y-53019973D01*
X95984953Y-53288995D01*
X94595549Y-53288995D01*
X94575383Y-53019897D01*
X94515334Y-52756805D01*
X94416743Y-52505602D01*
X94281815Y-52271898D01*
X94113561Y-52060915D01*
X94113560Y-52060914D01*
X94113557Y-52060910D01*
X93915741Y-51877365D01*
X93871902Y-51847476D01*
X93692775Y-51725349D01*
X93692769Y-51725346D01*
X93692768Y-51725345D01*
X93692767Y-51725344D01*
X93449643Y-51608263D01*
X93449645Y-51608263D01*
X93191773Y-51528720D01*
X93191767Y-51528718D01*
X92924936Y-51488500D01*
X92924929Y-51488500D01*
X92655071Y-51488500D01*
X92655063Y-51488500D01*
X92388232Y-51528718D01*
X92388226Y-51528720D01*
X92130358Y-51608262D01*
X91887230Y-51725346D01*
X91664258Y-51877365D01*
X91466442Y-52060910D01*
X91298185Y-52271898D01*
X91163258Y-52505599D01*
X91163256Y-52505603D01*
X91064666Y-52756804D01*
X91064664Y-52756811D01*
X91004616Y-53019898D01*
X90984451Y-53288995D01*
X88288074Y-53288995D01*
X88532254Y-53103375D01*
X88796021Y-52853521D01*
X89031227Y-52576614D01*
X89235117Y-52275900D01*
X89405298Y-51954905D01*
X89539775Y-51617391D01*
X89542310Y-51608263D01*
X89636969Y-51267329D01*
X89636973Y-51267316D01*
X89695751Y-50908785D01*
X89715421Y-50546000D01*
X89695751Y-50183215D01*
X89636973Y-49824684D01*
X89553350Y-49523500D01*
X89539778Y-49474618D01*
X89539773Y-49474603D01*
X89405299Y-49137098D01*
X89405298Y-49137095D01*
X89263678Y-48869971D01*
X108448500Y-48869971D01*
X108448500Y-49022029D01*
X108479330Y-49137086D01*
X108487857Y-49168910D01*
X108541296Y-49261468D01*
X108563885Y-49300593D01*
X108671407Y-49408115D01*
X108763968Y-49461555D01*
X108803089Y-49484142D01*
X108803090Y-49484142D01*
X108803093Y-49484144D01*
X108949971Y-49523500D01*
X108949974Y-49523500D01*
X109102026Y-49523500D01*
X109102029Y-49523500D01*
X109248907Y-49484144D01*
X109380593Y-49408115D01*
X109488115Y-49300593D01*
X109564144Y-49168907D01*
X109603500Y-49022029D01*
X109603500Y-48869971D01*
X111448500Y-48869971D01*
X111448500Y-49022029D01*
X111479330Y-49137086D01*
X111487857Y-49168910D01*
X111541296Y-49261468D01*
X111563885Y-49300593D01*
X111671407Y-49408115D01*
X111763968Y-49461555D01*
X111803089Y-49484142D01*
X111803090Y-49484142D01*
X111803093Y-49484144D01*
X111949971Y-49523500D01*
X111949974Y-49523500D01*
X112102026Y-49523500D01*
X112102029Y-49523500D01*
X112248907Y-49484144D01*
X112380593Y-49408115D01*
X112488115Y-49300593D01*
X112564144Y-49168907D01*
X112603500Y-49022029D01*
X112603500Y-48869971D01*
X112564144Y-48723093D01*
X112488115Y-48591407D01*
X112380593Y-48483885D01*
X112341468Y-48461296D01*
X112248910Y-48407857D01*
X112248911Y-48407857D01*
X112236866Y-48404629D01*
X112102029Y-48368500D01*
X111949971Y-48368500D01*
X111815133Y-48404629D01*
X111803089Y-48407857D01*
X111671410Y-48483883D01*
X111671404Y-48483887D01*
X111563887Y-48591404D01*
X111563883Y-48591410D01*
X111487857Y-48723089D01*
X111487856Y-48723093D01*
X111448500Y-48869971D01*
X109603500Y-48869971D01*
X109564144Y-48723093D01*
X109488115Y-48591407D01*
X109380593Y-48483885D01*
X109341468Y-48461296D01*
X109248910Y-48407857D01*
X109248911Y-48407857D01*
X109236866Y-48404629D01*
X109102029Y-48368500D01*
X108949971Y-48368500D01*
X108815133Y-48404629D01*
X108803089Y-48407857D01*
X108671410Y-48483883D01*
X108671404Y-48483887D01*
X108563887Y-48591404D01*
X108563883Y-48591410D01*
X108487857Y-48723089D01*
X108487856Y-48723093D01*
X108448500Y-48869971D01*
X89263678Y-48869971D01*
X89235117Y-48816100D01*
X89031227Y-48515386D01*
X88796021Y-48238479D01*
X88532254Y-47988625D01*
X88532244Y-47988617D01*
X88463635Y-47936462D01*
X88243019Y-47768755D01*
X87965454Y-47601749D01*
X87918160Y-47550321D01*
X87906178Y-47481486D01*
X87933313Y-47417101D01*
X87990950Y-47377607D01*
X88029384Y-47371500D01*
X116694616Y-47371500D01*
X116761655Y-47391185D01*
G37*
%TD.AperFunction*%
%TD*%
%TA.AperFunction,Conductor*%
%TO.N,HV*%
G36*
X114276722Y-63227167D02*
G01*
X115558931Y-64212724D01*
X115563402Y-64220482D01*
X115561077Y-64229130D01*
X115558931Y-64231276D01*
X114276722Y-65216832D01*
X114268074Y-65219157D01*
X114262996Y-65217220D01*
X113275104Y-64542983D01*
X113270203Y-64535489D01*
X113270000Y-64533319D01*
X113270000Y-63910680D01*
X113273427Y-63902407D01*
X113275100Y-63901018D01*
X114262998Y-63226778D01*
X114271762Y-63224946D01*
X114276722Y-63227167D01*
G37*
%TD.AperFunction*%
%TD*%
%TA.AperFunction,Conductor*%
%TO.N,UVLO*%
G36*
X95465330Y-66930803D02*
G01*
X95629196Y-67094669D01*
X95632623Y-67102942D01*
X95629600Y-67110791D01*
X95552799Y-67195696D01*
X95504090Y-67270682D01*
X95504089Y-67270685D01*
X95473821Y-67344017D01*
X95444956Y-67431993D01*
X95444798Y-67432443D01*
X95404394Y-67540492D01*
X95398286Y-67547041D01*
X95389337Y-67547353D01*
X95388991Y-67547217D01*
X95126815Y-67439563D01*
X95120463Y-67433251D01*
X95120436Y-67433184D01*
X95053710Y-67270682D01*
X95012782Y-67171007D01*
X95012809Y-67162053D01*
X95019161Y-67155741D01*
X95019469Y-67155619D01*
X95127592Y-67115185D01*
X95127965Y-67115054D01*
X95215975Y-67086179D01*
X95289315Y-67055908D01*
X95364305Y-67007196D01*
X95449208Y-66930398D01*
X95457643Y-66927391D01*
X95465330Y-66930803D01*
G37*
%TD.AperFunction*%
%TD*%
M02*
