%TF.GenerationSoftware,KiCad,Pcbnew,8.0.3-8.0.3-0~ubuntu22.04.1*%
%TF.CreationDate,2024-06-24T08:31:55-07:00*%
%TF.ProjectId,converter,636f6e76-6572-4746-9572-2e6b69636164,0.1*%
%TF.SameCoordinates,Original*%
%TF.FileFunction,Legend,Bot*%
%TF.FilePolarity,Positive*%
%FSLAX46Y46*%
G04 Gerber Fmt 4.6, Leading zero omitted, Abs format (unit mm)*
G04 Created by KiCad (PCBNEW 8.0.3-8.0.3-0~ubuntu22.04.1) date 2024-06-24 08:31:55*
%MOMM*%
%LPD*%
G01*
G04 APERTURE LIST*
%ADD10C,0.200000*%
G04 APERTURE END LIST*
D10*
X110072802Y-84449314D02*
X110168041Y-84401695D01*
X110168041Y-84401695D02*
X110358517Y-84401695D01*
X110358517Y-84401695D02*
X110453755Y-84449314D01*
X110453755Y-84449314D02*
X110548993Y-84544552D01*
X110548993Y-84544552D02*
X110596612Y-84639790D01*
X110596612Y-84639790D02*
X110596612Y-84830266D01*
X110596612Y-84830266D02*
X110548993Y-84925504D01*
X110548993Y-84925504D02*
X110453755Y-85020742D01*
X110453755Y-85020742D02*
X110358517Y-85068361D01*
X110358517Y-85068361D02*
X110168041Y-85068361D01*
X110168041Y-85068361D02*
X110072802Y-85020742D01*
X110263279Y-84068361D02*
X110501374Y-84115980D01*
X110501374Y-84115980D02*
X110739469Y-84258838D01*
X110739469Y-84258838D02*
X110882326Y-84496933D01*
X110882326Y-84496933D02*
X110929945Y-84735028D01*
X110929945Y-84735028D02*
X110882326Y-84973123D01*
X110882326Y-84973123D02*
X110739469Y-85211219D01*
X110739469Y-85211219D02*
X110501374Y-85354076D01*
X110501374Y-85354076D02*
X110263279Y-85401695D01*
X110263279Y-85401695D02*
X110025183Y-85354076D01*
X110025183Y-85354076D02*
X109787088Y-85211219D01*
X109787088Y-85211219D02*
X109644231Y-84973123D01*
X109644231Y-84973123D02*
X109596612Y-84735028D01*
X109596612Y-84735028D02*
X109644231Y-84496933D01*
X109644231Y-84496933D02*
X109787088Y-84258838D01*
X109787088Y-84258838D02*
X110025183Y-84115980D01*
X110025183Y-84115980D02*
X110263279Y-84068361D01*
X108453754Y-84306457D02*
X108406135Y-84258838D01*
X108406135Y-84258838D02*
X108310897Y-84211219D01*
X108310897Y-84211219D02*
X108072802Y-84211219D01*
X108072802Y-84211219D02*
X107977564Y-84258838D01*
X107977564Y-84258838D02*
X107929945Y-84306457D01*
X107929945Y-84306457D02*
X107882326Y-84401695D01*
X107882326Y-84401695D02*
X107882326Y-84496933D01*
X107882326Y-84496933D02*
X107929945Y-84639790D01*
X107929945Y-84639790D02*
X108501373Y-85211219D01*
X108501373Y-85211219D02*
X107882326Y-85211219D01*
X107263278Y-84211219D02*
X107168040Y-84211219D01*
X107168040Y-84211219D02*
X107072802Y-84258838D01*
X107072802Y-84258838D02*
X107025183Y-84306457D01*
X107025183Y-84306457D02*
X106977564Y-84401695D01*
X106977564Y-84401695D02*
X106929945Y-84592171D01*
X106929945Y-84592171D02*
X106929945Y-84830266D01*
X106929945Y-84830266D02*
X106977564Y-85020742D01*
X106977564Y-85020742D02*
X107025183Y-85115980D01*
X107025183Y-85115980D02*
X107072802Y-85163600D01*
X107072802Y-85163600D02*
X107168040Y-85211219D01*
X107168040Y-85211219D02*
X107263278Y-85211219D01*
X107263278Y-85211219D02*
X107358516Y-85163600D01*
X107358516Y-85163600D02*
X107406135Y-85115980D01*
X107406135Y-85115980D02*
X107453754Y-85020742D01*
X107453754Y-85020742D02*
X107501373Y-84830266D01*
X107501373Y-84830266D02*
X107501373Y-84592171D01*
X107501373Y-84592171D02*
X107453754Y-84401695D01*
X107453754Y-84401695D02*
X107406135Y-84306457D01*
X107406135Y-84306457D02*
X107358516Y-84258838D01*
X107358516Y-84258838D02*
X107263278Y-84211219D01*
X106548992Y-84306457D02*
X106501373Y-84258838D01*
X106501373Y-84258838D02*
X106406135Y-84211219D01*
X106406135Y-84211219D02*
X106168040Y-84211219D01*
X106168040Y-84211219D02*
X106072802Y-84258838D01*
X106072802Y-84258838D02*
X106025183Y-84306457D01*
X106025183Y-84306457D02*
X105977564Y-84401695D01*
X105977564Y-84401695D02*
X105977564Y-84496933D01*
X105977564Y-84496933D02*
X106025183Y-84639790D01*
X106025183Y-84639790D02*
X106596611Y-85211219D01*
X106596611Y-85211219D02*
X105977564Y-85211219D01*
X105120421Y-84544552D02*
X105120421Y-85211219D01*
X105358516Y-84163600D02*
X105596611Y-84877885D01*
X105596611Y-84877885D02*
X104977564Y-84877885D01*
X103834706Y-85211219D02*
X103834706Y-84211219D01*
X103834706Y-84211219D02*
X103263278Y-85211219D01*
X103263278Y-85211219D02*
X103263278Y-84211219D01*
X102406135Y-85163600D02*
X102501373Y-85211219D01*
X102501373Y-85211219D02*
X102691849Y-85211219D01*
X102691849Y-85211219D02*
X102787087Y-85163600D01*
X102787087Y-85163600D02*
X102834706Y-85068361D01*
X102834706Y-85068361D02*
X102834706Y-84687409D01*
X102834706Y-84687409D02*
X102787087Y-84592171D01*
X102787087Y-84592171D02*
X102691849Y-84544552D01*
X102691849Y-84544552D02*
X102501373Y-84544552D01*
X102501373Y-84544552D02*
X102406135Y-84592171D01*
X102406135Y-84592171D02*
X102358516Y-84687409D01*
X102358516Y-84687409D02*
X102358516Y-84782647D01*
X102358516Y-84782647D02*
X102834706Y-84877885D01*
X102025182Y-84544552D02*
X101834706Y-85211219D01*
X101834706Y-85211219D02*
X101644230Y-84735028D01*
X101644230Y-84735028D02*
X101453754Y-85211219D01*
X101453754Y-85211219D02*
X101263278Y-84544552D01*
X100501373Y-85163600D02*
X100596611Y-85211219D01*
X100596611Y-85211219D02*
X100787087Y-85211219D01*
X100787087Y-85211219D02*
X100882325Y-85163600D01*
X100882325Y-85163600D02*
X100929944Y-85068361D01*
X100929944Y-85068361D02*
X100929944Y-84687409D01*
X100929944Y-84687409D02*
X100882325Y-84592171D01*
X100882325Y-84592171D02*
X100787087Y-84544552D01*
X100787087Y-84544552D02*
X100596611Y-84544552D01*
X100596611Y-84544552D02*
X100501373Y-84592171D01*
X100501373Y-84592171D02*
X100453754Y-84687409D01*
X100453754Y-84687409D02*
X100453754Y-84782647D01*
X100453754Y-84782647D02*
X100929944Y-84877885D01*
X99882325Y-85211219D02*
X99977563Y-85163600D01*
X99977563Y-85163600D02*
X100025182Y-85068361D01*
X100025182Y-85068361D02*
X100025182Y-84211219D01*
X99358515Y-85211219D02*
X99453753Y-85163600D01*
X99453753Y-85163600D02*
X99501372Y-85068361D01*
X99501372Y-85068361D02*
X99501372Y-84211219D01*
X97929943Y-84211219D02*
X97929943Y-84925504D01*
X97929943Y-84925504D02*
X97977562Y-85068361D01*
X97977562Y-85068361D02*
X98072800Y-85163600D01*
X98072800Y-85163600D02*
X98215657Y-85211219D01*
X98215657Y-85211219D02*
X98310895Y-85211219D01*
X97072800Y-85163600D02*
X97168038Y-85211219D01*
X97168038Y-85211219D02*
X97358514Y-85211219D01*
X97358514Y-85211219D02*
X97453752Y-85163600D01*
X97453752Y-85163600D02*
X97501371Y-85068361D01*
X97501371Y-85068361D02*
X97501371Y-84687409D01*
X97501371Y-84687409D02*
X97453752Y-84592171D01*
X97453752Y-84592171D02*
X97358514Y-84544552D01*
X97358514Y-84544552D02*
X97168038Y-84544552D01*
X97168038Y-84544552D02*
X97072800Y-84592171D01*
X97072800Y-84592171D02*
X97025181Y-84687409D01*
X97025181Y-84687409D02*
X97025181Y-84782647D01*
X97025181Y-84782647D02*
X97501371Y-84877885D01*
X96596609Y-84544552D02*
X96596609Y-85211219D01*
X96596609Y-84639790D02*
X96548990Y-84592171D01*
X96548990Y-84592171D02*
X96453752Y-84544552D01*
X96453752Y-84544552D02*
X96310895Y-84544552D01*
X96310895Y-84544552D02*
X96215657Y-84592171D01*
X96215657Y-84592171D02*
X96168038Y-84687409D01*
X96168038Y-84687409D02*
X96168038Y-85211219D01*
X95739466Y-85163600D02*
X95644228Y-85211219D01*
X95644228Y-85211219D02*
X95453752Y-85211219D01*
X95453752Y-85211219D02*
X95358514Y-85163600D01*
X95358514Y-85163600D02*
X95310895Y-85068361D01*
X95310895Y-85068361D02*
X95310895Y-85020742D01*
X95310895Y-85020742D02*
X95358514Y-84925504D01*
X95358514Y-84925504D02*
X95453752Y-84877885D01*
X95453752Y-84877885D02*
X95596609Y-84877885D01*
X95596609Y-84877885D02*
X95691847Y-84830266D01*
X95691847Y-84830266D02*
X95739466Y-84735028D01*
X95739466Y-84735028D02*
X95739466Y-84687409D01*
X95739466Y-84687409D02*
X95691847Y-84592171D01*
X95691847Y-84592171D02*
X95596609Y-84544552D01*
X95596609Y-84544552D02*
X95453752Y-84544552D01*
X95453752Y-84544552D02*
X95358514Y-84592171D01*
X94501371Y-85163600D02*
X94596609Y-85211219D01*
X94596609Y-85211219D02*
X94787085Y-85211219D01*
X94787085Y-85211219D02*
X94882323Y-85163600D01*
X94882323Y-85163600D02*
X94929942Y-85068361D01*
X94929942Y-85068361D02*
X94929942Y-84687409D01*
X94929942Y-84687409D02*
X94882323Y-84592171D01*
X94882323Y-84592171D02*
X94787085Y-84544552D01*
X94787085Y-84544552D02*
X94596609Y-84544552D01*
X94596609Y-84544552D02*
X94501371Y-84592171D01*
X94501371Y-84592171D02*
X94453752Y-84687409D01*
X94453752Y-84687409D02*
X94453752Y-84782647D01*
X94453752Y-84782647D02*
X94929942Y-84877885D01*
X94025180Y-84544552D02*
X94025180Y-85211219D01*
X94025180Y-84639790D02*
X93977561Y-84592171D01*
X93977561Y-84592171D02*
X93882323Y-84544552D01*
X93882323Y-84544552D02*
X93739466Y-84544552D01*
X93739466Y-84544552D02*
X93644228Y-84592171D01*
X93644228Y-84592171D02*
X93596609Y-84687409D01*
X93596609Y-84687409D02*
X93596609Y-85211219D01*
X116883136Y-80919219D02*
X117359326Y-80919219D01*
X117359326Y-80919219D02*
X117359326Y-79919219D01*
X116692659Y-79919219D02*
X116121231Y-79919219D01*
X116406945Y-80919219D02*
X116406945Y-79919219D01*
X115883135Y-79919219D02*
X115264088Y-79919219D01*
X115264088Y-79919219D02*
X115597421Y-80300171D01*
X115597421Y-80300171D02*
X115454564Y-80300171D01*
X115454564Y-80300171D02*
X115359326Y-80347790D01*
X115359326Y-80347790D02*
X115311707Y-80395409D01*
X115311707Y-80395409D02*
X115264088Y-80490647D01*
X115264088Y-80490647D02*
X115264088Y-80728742D01*
X115264088Y-80728742D02*
X115311707Y-80823980D01*
X115311707Y-80823980D02*
X115359326Y-80871600D01*
X115359326Y-80871600D02*
X115454564Y-80919219D01*
X115454564Y-80919219D02*
X115740278Y-80919219D01*
X115740278Y-80919219D02*
X115835516Y-80871600D01*
X115835516Y-80871600D02*
X115883135Y-80823980D01*
X114787897Y-80919219D02*
X114597421Y-80919219D01*
X114597421Y-80919219D02*
X114502183Y-80871600D01*
X114502183Y-80871600D02*
X114454564Y-80823980D01*
X114454564Y-80823980D02*
X114359326Y-80681123D01*
X114359326Y-80681123D02*
X114311707Y-80490647D01*
X114311707Y-80490647D02*
X114311707Y-80109695D01*
X114311707Y-80109695D02*
X114359326Y-80014457D01*
X114359326Y-80014457D02*
X114406945Y-79966838D01*
X114406945Y-79966838D02*
X114502183Y-79919219D01*
X114502183Y-79919219D02*
X114692659Y-79919219D01*
X114692659Y-79919219D02*
X114787897Y-79966838D01*
X114787897Y-79966838D02*
X114835516Y-80014457D01*
X114835516Y-80014457D02*
X114883135Y-80109695D01*
X114883135Y-80109695D02*
X114883135Y-80347790D01*
X114883135Y-80347790D02*
X114835516Y-80443028D01*
X114835516Y-80443028D02*
X114787897Y-80490647D01*
X114787897Y-80490647D02*
X114692659Y-80538266D01*
X114692659Y-80538266D02*
X114502183Y-80538266D01*
X114502183Y-80538266D02*
X114406945Y-80490647D01*
X114406945Y-80490647D02*
X114359326Y-80443028D01*
X114359326Y-80443028D02*
X114311707Y-80347790D01*
X113406945Y-79919219D02*
X113883135Y-79919219D01*
X113883135Y-79919219D02*
X113930754Y-80395409D01*
X113930754Y-80395409D02*
X113883135Y-80347790D01*
X113883135Y-80347790D02*
X113787897Y-80300171D01*
X113787897Y-80300171D02*
X113549802Y-80300171D01*
X113549802Y-80300171D02*
X113454564Y-80347790D01*
X113454564Y-80347790D02*
X113406945Y-80395409D01*
X113406945Y-80395409D02*
X113359326Y-80490647D01*
X113359326Y-80490647D02*
X113359326Y-80728742D01*
X113359326Y-80728742D02*
X113406945Y-80823980D01*
X113406945Y-80823980D02*
X113454564Y-80871600D01*
X113454564Y-80871600D02*
X113549802Y-80919219D01*
X113549802Y-80919219D02*
X113787897Y-80919219D01*
X113787897Y-80919219D02*
X113883135Y-80871600D01*
X113883135Y-80871600D02*
X113930754Y-80823980D01*
X113025992Y-79919219D02*
X112359326Y-79919219D01*
X112359326Y-79919219D02*
X112787897Y-80919219D01*
X112025992Y-80633504D02*
X111549802Y-80633504D01*
X112121230Y-80919219D02*
X111787897Y-79919219D01*
X111787897Y-79919219D02*
X111454564Y-80919219D01*
X110359325Y-80919219D02*
X110359325Y-79919219D01*
X110359325Y-80395409D02*
X109787897Y-80395409D01*
X109787897Y-80919219D02*
X109787897Y-79919219D01*
X109311706Y-80919219D02*
X109311706Y-80252552D01*
X109311706Y-79919219D02*
X109359325Y-79966838D01*
X109359325Y-79966838D02*
X109311706Y-80014457D01*
X109311706Y-80014457D02*
X109264087Y-79966838D01*
X109264087Y-79966838D02*
X109311706Y-79919219D01*
X109311706Y-79919219D02*
X109311706Y-80014457D01*
X108406945Y-80252552D02*
X108406945Y-81062076D01*
X108406945Y-81062076D02*
X108454564Y-81157314D01*
X108454564Y-81157314D02*
X108502183Y-81204933D01*
X108502183Y-81204933D02*
X108597421Y-81252552D01*
X108597421Y-81252552D02*
X108740278Y-81252552D01*
X108740278Y-81252552D02*
X108835516Y-81204933D01*
X108406945Y-80871600D02*
X108502183Y-80919219D01*
X108502183Y-80919219D02*
X108692659Y-80919219D01*
X108692659Y-80919219D02*
X108787897Y-80871600D01*
X108787897Y-80871600D02*
X108835516Y-80823980D01*
X108835516Y-80823980D02*
X108883135Y-80728742D01*
X108883135Y-80728742D02*
X108883135Y-80443028D01*
X108883135Y-80443028D02*
X108835516Y-80347790D01*
X108835516Y-80347790D02*
X108787897Y-80300171D01*
X108787897Y-80300171D02*
X108692659Y-80252552D01*
X108692659Y-80252552D02*
X108502183Y-80252552D01*
X108502183Y-80252552D02*
X108406945Y-80300171D01*
X107930754Y-80919219D02*
X107930754Y-79919219D01*
X107502183Y-80919219D02*
X107502183Y-80395409D01*
X107502183Y-80395409D02*
X107549802Y-80300171D01*
X107549802Y-80300171D02*
X107645040Y-80252552D01*
X107645040Y-80252552D02*
X107787897Y-80252552D01*
X107787897Y-80252552D02*
X107883135Y-80300171D01*
X107883135Y-80300171D02*
X107930754Y-80347790D01*
X106406944Y-79919219D02*
X106073611Y-80919219D01*
X106073611Y-80919219D02*
X105740278Y-79919219D01*
X105264087Y-80919219D02*
X105359325Y-80871600D01*
X105359325Y-80871600D02*
X105406944Y-80823980D01*
X105406944Y-80823980D02*
X105454563Y-80728742D01*
X105454563Y-80728742D02*
X105454563Y-80443028D01*
X105454563Y-80443028D02*
X105406944Y-80347790D01*
X105406944Y-80347790D02*
X105359325Y-80300171D01*
X105359325Y-80300171D02*
X105264087Y-80252552D01*
X105264087Y-80252552D02*
X105121230Y-80252552D01*
X105121230Y-80252552D02*
X105025992Y-80300171D01*
X105025992Y-80300171D02*
X104978373Y-80347790D01*
X104978373Y-80347790D02*
X104930754Y-80443028D01*
X104930754Y-80443028D02*
X104930754Y-80728742D01*
X104930754Y-80728742D02*
X104978373Y-80823980D01*
X104978373Y-80823980D02*
X105025992Y-80871600D01*
X105025992Y-80871600D02*
X105121230Y-80919219D01*
X105121230Y-80919219D02*
X105264087Y-80919219D01*
X104359325Y-80919219D02*
X104454563Y-80871600D01*
X104454563Y-80871600D02*
X104502182Y-80776361D01*
X104502182Y-80776361D02*
X104502182Y-79919219D01*
X104121229Y-80252552D02*
X103740277Y-80252552D01*
X103978372Y-79919219D02*
X103978372Y-80776361D01*
X103978372Y-80776361D02*
X103930753Y-80871600D01*
X103930753Y-80871600D02*
X103835515Y-80919219D01*
X103835515Y-80919219D02*
X103740277Y-80919219D01*
X102978372Y-80919219D02*
X102978372Y-80395409D01*
X102978372Y-80395409D02*
X103025991Y-80300171D01*
X103025991Y-80300171D02*
X103121229Y-80252552D01*
X103121229Y-80252552D02*
X103311705Y-80252552D01*
X103311705Y-80252552D02*
X103406943Y-80300171D01*
X102978372Y-80871600D02*
X103073610Y-80919219D01*
X103073610Y-80919219D02*
X103311705Y-80919219D01*
X103311705Y-80919219D02*
X103406943Y-80871600D01*
X103406943Y-80871600D02*
X103454562Y-80776361D01*
X103454562Y-80776361D02*
X103454562Y-80681123D01*
X103454562Y-80681123D02*
X103406943Y-80585885D01*
X103406943Y-80585885D02*
X103311705Y-80538266D01*
X103311705Y-80538266D02*
X103073610Y-80538266D01*
X103073610Y-80538266D02*
X102978372Y-80490647D01*
X102073610Y-80252552D02*
X102073610Y-81062076D01*
X102073610Y-81062076D02*
X102121229Y-81157314D01*
X102121229Y-81157314D02*
X102168848Y-81204933D01*
X102168848Y-81204933D02*
X102264086Y-81252552D01*
X102264086Y-81252552D02*
X102406943Y-81252552D01*
X102406943Y-81252552D02*
X102502181Y-81204933D01*
X102073610Y-80871600D02*
X102168848Y-80919219D01*
X102168848Y-80919219D02*
X102359324Y-80919219D01*
X102359324Y-80919219D02*
X102454562Y-80871600D01*
X102454562Y-80871600D02*
X102502181Y-80823980D01*
X102502181Y-80823980D02*
X102549800Y-80728742D01*
X102549800Y-80728742D02*
X102549800Y-80443028D01*
X102549800Y-80443028D02*
X102502181Y-80347790D01*
X102502181Y-80347790D02*
X102454562Y-80300171D01*
X102454562Y-80300171D02*
X102359324Y-80252552D01*
X102359324Y-80252552D02*
X102168848Y-80252552D01*
X102168848Y-80252552D02*
X102073610Y-80300171D01*
X101216467Y-80871600D02*
X101311705Y-80919219D01*
X101311705Y-80919219D02*
X101502181Y-80919219D01*
X101502181Y-80919219D02*
X101597419Y-80871600D01*
X101597419Y-80871600D02*
X101645038Y-80776361D01*
X101645038Y-80776361D02*
X101645038Y-80395409D01*
X101645038Y-80395409D02*
X101597419Y-80300171D01*
X101597419Y-80300171D02*
X101502181Y-80252552D01*
X101502181Y-80252552D02*
X101311705Y-80252552D01*
X101311705Y-80252552D02*
X101216467Y-80300171D01*
X101216467Y-80300171D02*
X101168848Y-80395409D01*
X101168848Y-80395409D02*
X101168848Y-80490647D01*
X101168848Y-80490647D02*
X101645038Y-80585885D01*
X99645038Y-80395409D02*
X99978371Y-80395409D01*
X99978371Y-80919219D02*
X99978371Y-79919219D01*
X99978371Y-79919219D02*
X99502181Y-79919219D01*
X98978371Y-80919219D02*
X99073609Y-80871600D01*
X99073609Y-80871600D02*
X99121228Y-80776361D01*
X99121228Y-80776361D02*
X99121228Y-79919219D01*
X98692656Y-80252552D02*
X98454561Y-80919219D01*
X98216466Y-80252552D02*
X98454561Y-80919219D01*
X98454561Y-80919219D02*
X98549799Y-81157314D01*
X98549799Y-81157314D02*
X98597418Y-81204933D01*
X98597418Y-81204933D02*
X98692656Y-81252552D01*
X97835513Y-80919219D02*
X97835513Y-79919219D01*
X97835513Y-80300171D02*
X97740275Y-80252552D01*
X97740275Y-80252552D02*
X97549799Y-80252552D01*
X97549799Y-80252552D02*
X97454561Y-80300171D01*
X97454561Y-80300171D02*
X97406942Y-80347790D01*
X97406942Y-80347790D02*
X97359323Y-80443028D01*
X97359323Y-80443028D02*
X97359323Y-80728742D01*
X97359323Y-80728742D02*
X97406942Y-80823980D01*
X97406942Y-80823980D02*
X97454561Y-80871600D01*
X97454561Y-80871600D02*
X97549799Y-80919219D01*
X97549799Y-80919219D02*
X97740275Y-80919219D01*
X97740275Y-80919219D02*
X97835513Y-80871600D01*
X96502180Y-80919219D02*
X96502180Y-80395409D01*
X96502180Y-80395409D02*
X96549799Y-80300171D01*
X96549799Y-80300171D02*
X96645037Y-80252552D01*
X96645037Y-80252552D02*
X96835513Y-80252552D01*
X96835513Y-80252552D02*
X96930751Y-80300171D01*
X96502180Y-80871600D02*
X96597418Y-80919219D01*
X96597418Y-80919219D02*
X96835513Y-80919219D01*
X96835513Y-80919219D02*
X96930751Y-80871600D01*
X96930751Y-80871600D02*
X96978370Y-80776361D01*
X96978370Y-80776361D02*
X96978370Y-80681123D01*
X96978370Y-80681123D02*
X96930751Y-80585885D01*
X96930751Y-80585885D02*
X96835513Y-80538266D01*
X96835513Y-80538266D02*
X96597418Y-80538266D01*
X96597418Y-80538266D02*
X96502180Y-80490647D01*
X95597418Y-80871600D02*
X95692656Y-80919219D01*
X95692656Y-80919219D02*
X95883132Y-80919219D01*
X95883132Y-80919219D02*
X95978370Y-80871600D01*
X95978370Y-80871600D02*
X96025989Y-80823980D01*
X96025989Y-80823980D02*
X96073608Y-80728742D01*
X96073608Y-80728742D02*
X96073608Y-80443028D01*
X96073608Y-80443028D02*
X96025989Y-80347790D01*
X96025989Y-80347790D02*
X95978370Y-80300171D01*
X95978370Y-80300171D02*
X95883132Y-80252552D01*
X95883132Y-80252552D02*
X95692656Y-80252552D01*
X95692656Y-80252552D02*
X95597418Y-80300171D01*
X95168846Y-80919219D02*
X95168846Y-79919219D01*
X95073608Y-80538266D02*
X94787894Y-80919219D01*
X94787894Y-80252552D02*
X95168846Y-80633504D01*
X93025989Y-80823980D02*
X93073608Y-80871600D01*
X93073608Y-80871600D02*
X93216465Y-80919219D01*
X93216465Y-80919219D02*
X93311703Y-80919219D01*
X93311703Y-80919219D02*
X93454560Y-80871600D01*
X93454560Y-80871600D02*
X93549798Y-80776361D01*
X93549798Y-80776361D02*
X93597417Y-80681123D01*
X93597417Y-80681123D02*
X93645036Y-80490647D01*
X93645036Y-80490647D02*
X93645036Y-80347790D01*
X93645036Y-80347790D02*
X93597417Y-80157314D01*
X93597417Y-80157314D02*
X93549798Y-80062076D01*
X93549798Y-80062076D02*
X93454560Y-79966838D01*
X93454560Y-79966838D02*
X93311703Y-79919219D01*
X93311703Y-79919219D02*
X93216465Y-79919219D01*
X93216465Y-79919219D02*
X93073608Y-79966838D01*
X93073608Y-79966838D02*
X93025989Y-80014457D01*
X92454560Y-80919219D02*
X92549798Y-80871600D01*
X92549798Y-80871600D02*
X92597417Y-80823980D01*
X92597417Y-80823980D02*
X92645036Y-80728742D01*
X92645036Y-80728742D02*
X92645036Y-80443028D01*
X92645036Y-80443028D02*
X92597417Y-80347790D01*
X92597417Y-80347790D02*
X92549798Y-80300171D01*
X92549798Y-80300171D02*
X92454560Y-80252552D01*
X92454560Y-80252552D02*
X92311703Y-80252552D01*
X92311703Y-80252552D02*
X92216465Y-80300171D01*
X92216465Y-80300171D02*
X92168846Y-80347790D01*
X92168846Y-80347790D02*
X92121227Y-80443028D01*
X92121227Y-80443028D02*
X92121227Y-80728742D01*
X92121227Y-80728742D02*
X92168846Y-80823980D01*
X92168846Y-80823980D02*
X92216465Y-80871600D01*
X92216465Y-80871600D02*
X92311703Y-80919219D01*
X92311703Y-80919219D02*
X92454560Y-80919219D01*
X91692655Y-80252552D02*
X91692655Y-80919219D01*
X91692655Y-80347790D02*
X91645036Y-80300171D01*
X91645036Y-80300171D02*
X91549798Y-80252552D01*
X91549798Y-80252552D02*
X91406941Y-80252552D01*
X91406941Y-80252552D02*
X91311703Y-80300171D01*
X91311703Y-80300171D02*
X91264084Y-80395409D01*
X91264084Y-80395409D02*
X91264084Y-80919219D01*
X90883131Y-80252552D02*
X90645036Y-80919219D01*
X90645036Y-80919219D02*
X90406941Y-80252552D01*
X89645036Y-80871600D02*
X89740274Y-80919219D01*
X89740274Y-80919219D02*
X89930750Y-80919219D01*
X89930750Y-80919219D02*
X90025988Y-80871600D01*
X90025988Y-80871600D02*
X90073607Y-80776361D01*
X90073607Y-80776361D02*
X90073607Y-80395409D01*
X90073607Y-80395409D02*
X90025988Y-80300171D01*
X90025988Y-80300171D02*
X89930750Y-80252552D01*
X89930750Y-80252552D02*
X89740274Y-80252552D01*
X89740274Y-80252552D02*
X89645036Y-80300171D01*
X89645036Y-80300171D02*
X89597417Y-80395409D01*
X89597417Y-80395409D02*
X89597417Y-80490647D01*
X89597417Y-80490647D02*
X90073607Y-80585885D01*
X89168845Y-80919219D02*
X89168845Y-80252552D01*
X89168845Y-80443028D02*
X89121226Y-80347790D01*
X89121226Y-80347790D02*
X89073607Y-80300171D01*
X89073607Y-80300171D02*
X88978369Y-80252552D01*
X88978369Y-80252552D02*
X88883131Y-80252552D01*
X88692654Y-80252552D02*
X88311702Y-80252552D01*
X88549797Y-79919219D02*
X88549797Y-80776361D01*
X88549797Y-80776361D02*
X88502178Y-80871600D01*
X88502178Y-80871600D02*
X88406940Y-80919219D01*
X88406940Y-80919219D02*
X88311702Y-80919219D01*
X87597416Y-80871600D02*
X87692654Y-80919219D01*
X87692654Y-80919219D02*
X87883130Y-80919219D01*
X87883130Y-80919219D02*
X87978368Y-80871600D01*
X87978368Y-80871600D02*
X88025987Y-80776361D01*
X88025987Y-80776361D02*
X88025987Y-80395409D01*
X88025987Y-80395409D02*
X87978368Y-80300171D01*
X87978368Y-80300171D02*
X87883130Y-80252552D01*
X87883130Y-80252552D02*
X87692654Y-80252552D01*
X87692654Y-80252552D02*
X87597416Y-80300171D01*
X87597416Y-80300171D02*
X87549797Y-80395409D01*
X87549797Y-80395409D02*
X87549797Y-80490647D01*
X87549797Y-80490647D02*
X88025987Y-80585885D01*
X87121225Y-80919219D02*
X87121225Y-80252552D01*
X87121225Y-80443028D02*
X87073606Y-80347790D01*
X87073606Y-80347790D02*
X87025987Y-80300171D01*
X87025987Y-80300171D02*
X86930749Y-80252552D01*
X86930749Y-80252552D02*
X86835511Y-80252552D01*
M02*
