%TF.GenerationSoftware,KiCad,Pcbnew,8.0.3-8.0.3-0~ubuntu22.04.1*%
%TF.CreationDate,2024-06-24T08:31:55-07:00*%
%TF.ProjectId,converter,636f6e76-6572-4746-9572-2e6b69636164,0.1*%
%TF.SameCoordinates,Original*%
%TF.FileFunction,Paste,Top*%
%TF.FilePolarity,Positive*%
%FSLAX46Y46*%
G04 Gerber Fmt 4.6, Leading zero omitted, Abs format (unit mm)*
G04 Created by KiCad (PCBNEW 8.0.3-8.0.3-0~ubuntu22.04.1) date 2024-06-24 08:31:55*
%MOMM*%
%LPD*%
G01*
G04 APERTURE LIST*
G04 Aperture macros list*
%AMRoundRect*
0 Rectangle with rounded corners*
0 $1 Rounding radius*
0 $2 $3 $4 $5 $6 $7 $8 $9 X,Y pos of 4 corners*
0 Add a 4 corners polygon primitive as box body*
4,1,4,$2,$3,$4,$5,$6,$7,$8,$9,$2,$3,0*
0 Add four circle primitives for the rounded corners*
1,1,$1+$1,$2,$3*
1,1,$1+$1,$4,$5*
1,1,$1+$1,$6,$7*
1,1,$1+$1,$8,$9*
0 Add four rect primitives between the rounded corners*
20,1,$1+$1,$2,$3,$4,$5,0*
20,1,$1+$1,$4,$5,$6,$7,0*
20,1,$1+$1,$6,$7,$8,$9,0*
20,1,$1+$1,$8,$9,$2,$3,0*%
G04 Aperture macros list end*
%ADD10RoundRect,0.250000X-0.400000X-0.625000X0.400000X-0.625000X0.400000X0.625000X-0.400000X0.625000X0*%
%ADD11RoundRect,0.250000X-0.625000X0.400000X-0.625000X-0.400000X0.625000X-0.400000X0.625000X0.400000X0*%
%ADD12RoundRect,0.250000X-0.475000X0.337500X-0.475000X-0.337500X0.475000X-0.337500X0.475000X0.337500X0*%
%ADD13R,0.700000X0.250000*%
%ADD14R,0.250000X0.700000*%
%ADD15R,3.000000X1.880000*%
%ADD16R,3.000000X1.530000*%
%ADD17RoundRect,0.250000X0.475000X-0.337500X0.475000X0.337500X-0.475000X0.337500X-0.475000X-0.337500X0*%
%ADD18RoundRect,0.250000X0.350000X0.450000X-0.350000X0.450000X-0.350000X-0.450000X0.350000X-0.450000X0*%
%ADD19RoundRect,0.050000X0.100000X0.250000X-0.100000X0.250000X-0.100000X-0.250000X0.100000X-0.250000X0*%
%ADD20RoundRect,0.250000X-0.900000X1.500000X-0.900000X-1.500000X0.900000X-1.500000X0.900000X1.500000X0*%
%ADD21RoundRect,0.250000X-0.300000X-0.300000X0.300000X-0.300000X0.300000X0.300000X-0.300000X0.300000X0*%
%ADD22RoundRect,0.250000X-0.450000X0.350000X-0.450000X-0.350000X0.450000X-0.350000X0.450000X0.350000X0*%
%ADD23RoundRect,0.050000X-0.100000X-0.250000X0.100000X-0.250000X0.100000X0.250000X-0.100000X0.250000X0*%
%ADD24RoundRect,0.250000X0.337500X0.475000X-0.337500X0.475000X-0.337500X-0.475000X0.337500X-0.475000X0*%
%ADD25RoundRect,0.250000X0.450000X-0.350000X0.450000X0.350000X-0.450000X0.350000X-0.450000X-0.350000X0*%
%ADD26R,2.950000X1.000000*%
%ADD27R,1.000000X0.800000*%
%ADD28R,0.700000X1.500000*%
%ADD29RoundRect,0.250000X0.400000X1.075000X-0.400000X1.075000X-0.400000X-1.075000X0.400000X-1.075000X0*%
%ADD30RoundRect,0.250000X-0.350000X-0.450000X0.350000X-0.450000X0.350000X0.450000X-0.350000X0.450000X0*%
%ADD31RoundRect,0.250000X1.075000X-0.400000X1.075000X0.400000X-1.075000X0.400000X-1.075000X-0.400000X0*%
G04 APERTURE END LIST*
D10*
%TO.C,C1*%
X99337000Y-66802000D03*
X102437000Y-66802000D03*
%TD*%
D11*
%TO.C,R8*%
X95758000Y-59918000D03*
X95758000Y-63018000D03*
%TD*%
D12*
%TO.C,C5*%
X86360000Y-58525500D03*
X86360000Y-60600500D03*
%TD*%
D13*
%TO.C,U1*%
X89266000Y-65928000D03*
X89266000Y-66428000D03*
X89266000Y-66928000D03*
X89266000Y-67428000D03*
X89266000Y-68428000D03*
X89266000Y-69428000D03*
X89266000Y-69928000D03*
X89266000Y-70428000D03*
D14*
X90416000Y-71078000D03*
X90916000Y-71078000D03*
X91416000Y-71078000D03*
X91916000Y-71078000D03*
X92416000Y-71078000D03*
X92916000Y-71078000D03*
D13*
X94066000Y-69928000D03*
X94066000Y-69428000D03*
X94066000Y-68428000D03*
X94066000Y-67928000D03*
X94066000Y-67428000D03*
X94066000Y-66428000D03*
X94066000Y-65928000D03*
D14*
X92916000Y-65278000D03*
X92416000Y-65278000D03*
X91916000Y-65278000D03*
X91416000Y-65278000D03*
X90916000Y-65278000D03*
X90416000Y-65278000D03*
X89916000Y-65278000D03*
D15*
X91666000Y-67118000D03*
D16*
X91666000Y-69423000D03*
%TD*%
D17*
%TO.C,C3*%
X90932000Y-62865000D03*
X90932000Y-60790000D03*
%TD*%
D18*
%TO.C,R4*%
X88884000Y-62716500D03*
X86884000Y-62716500D03*
%TD*%
D19*
%TO.C,D2*%
X88869000Y-54356000D03*
X88169000Y-54356000D03*
%TD*%
D20*
%TO.C,D4*%
X117094000Y-69944000D03*
X117094000Y-75344000D03*
%TD*%
D12*
%TO.C,C7*%
X96672400Y-65764500D03*
X96672400Y-67839500D03*
%TD*%
D21*
%TO.C,D3*%
X85976000Y-75184000D03*
X88776000Y-75184000D03*
%TD*%
D22*
%TO.C,R2*%
X112814000Y-52864000D03*
X112814000Y-54864000D03*
%TD*%
D23*
%TO.C,D1*%
X106584000Y-56896000D03*
X107284000Y-56896000D03*
%TD*%
D18*
%TO.C,R6*%
X88503000Y-56388000D03*
X86503000Y-56388000D03*
%TD*%
D12*
%TO.C,C8*%
X86692000Y-66040000D03*
X86692000Y-68115000D03*
%TD*%
D24*
%TO.C,C6*%
X98651500Y-72136000D03*
X96576500Y-72136000D03*
%TD*%
D25*
%TO.C,R9*%
X93218000Y-62849000D03*
X93218000Y-60849000D03*
%TD*%
D22*
%TO.C,R1*%
X108458000Y-52873400D03*
X108458000Y-54873400D03*
%TD*%
D25*
%TO.C,R7*%
X84328000Y-68077500D03*
X84328000Y-66077500D03*
%TD*%
D26*
%TO.C,TR1*%
X92219000Y-76046000D03*
X92219000Y-78546000D03*
X92219000Y-81046000D03*
X92219000Y-83546000D03*
X92219000Y-86046000D03*
X92219000Y-88546000D03*
X112169000Y-88546000D03*
X112169000Y-86046000D03*
X112169000Y-83546000D03*
X112169000Y-81046000D03*
X112169000Y-78546000D03*
X112169000Y-76046000D03*
%TD*%
D27*
%TO.C,SW1*%
X114176000Y-50056000D03*
X114176000Y-47846000D03*
X106876000Y-50056000D03*
X106876000Y-47846000D03*
D28*
X112776000Y-50706000D03*
X109776000Y-50706000D03*
X108276000Y-50706000D03*
%TD*%
D10*
%TO.C,C2*%
X99337000Y-64135000D03*
X102437000Y-64135000D03*
%TD*%
D12*
%TO.C,C4*%
X88646000Y-58525500D03*
X88646000Y-60600500D03*
%TD*%
D29*
%TO.C,C9*%
X111278000Y-70104000D03*
X108178000Y-70104000D03*
%TD*%
D30*
%TO.C,R5*%
X96614000Y-69977000D03*
X98614000Y-69977000D03*
%TD*%
D31*
%TO.C,C10*%
X105537000Y-70765000D03*
X105537000Y-67665000D03*
%TD*%
D22*
%TO.C,R3*%
X84074000Y-60700500D03*
X84074000Y-62700500D03*
%TD*%
M02*
